<mxfile host="Electron" modified="2025-03-21T03:27:27.391Z" agent="Mozilla/5.0 (Macintosh; Intel Mac OS X 10_15_7) AppleWebKit/537.36 (KHTML, like Gecko) draw.io/22.0.3 Chrome/114.0.5735.289 Electron/25.8.4 Safari/537.36" version="22.0.3" etag="h3gueK154y5idT-FLWO_" type="device" pages="4">
  <diagram id="xlDVrLw4-8H6_Rt88rZv" name="vpc">
    <mxGraphModel dx="1992" dy="616" grid="0" gridSize="10" guides="1" tooltips="1" connect="1" arrows="1" fold="1" page="0" pageScale="1" pageWidth="827" pageHeight="1169" math="0" shadow="0">
      <root>
        <mxCell id="0" />
        <mxCell id="1" parent="0" />
        <mxCell id="aNjRSBL3TXVuBhrkCqzv-42" value="Region" style="points=[[0,0],[0.25,0],[0.5,0],[0.75,0],[1,0],[1,0.25],[1,0.5],[1,0.75],[1,1],[0.75,1],[0.5,1],[0.25,1],[0,1],[0,0.75],[0,0.5],[0,0.25]];outlineConnect=0;gradientColor=none;html=1;whiteSpace=wrap;fontSize=12;fontStyle=0;container=1;pointerEvents=0;collapsible=0;recursiveResize=0;shape=mxgraph.aws4.group;grIcon=mxgraph.aws4.group_region;strokeColor=#00A4A6;fillColor=none;verticalAlign=top;align=left;spacingLeft=30;fontColor=#147EBA;dashed=1;strokeWidth=2;" vertex="1" parent="1">
          <mxGeometry x="-77" y="467" width="1010" height="530" as="geometry" />
        </mxCell>
        <mxCell id="aNjRSBL3TXVuBhrkCqzv-43" value="Availability Zone - 1" style="fillColor=none;strokeColor=#147EBA;dashed=1;verticalAlign=top;fontStyle=0;fontColor=#147EBA;whiteSpace=wrap;html=1;strokeWidth=2;" vertex="1" parent="aNjRSBL3TXVuBhrkCqzv-42">
          <mxGeometry x="110" y="40" width="340" height="470" as="geometry" />
        </mxCell>
        <mxCell id="aNjRSBL3TXVuBhrkCqzv-54" value="Availability Zone - 2" style="fillColor=none;strokeColor=#147EBA;dashed=1;verticalAlign=top;fontStyle=0;fontColor=#147EBA;whiteSpace=wrap;html=1;strokeWidth=2;" vertex="1" parent="aNjRSBL3TXVuBhrkCqzv-42">
          <mxGeometry x="550" y="40" width="340" height="470" as="geometry" />
        </mxCell>
        <mxCell id="aNjRSBL3TXVuBhrkCqzv-55" value="&lt;b&gt;&lt;font color=&quot;#000000&quot;&gt;VPC - 1&lt;/font&gt;&lt;/b&gt;" style="points=[[0,0],[0.25,0],[0.5,0],[0.75,0],[1,0],[1,0.25],[1,0.5],[1,0.75],[1,1],[0.75,1],[0.5,1],[0.25,1],[0,1],[0,0.75],[0,0.5],[0,0.25]];outlineConnect=0;gradientColor=none;html=1;whiteSpace=wrap;fontSize=12;fontStyle=0;container=1;pointerEvents=0;collapsible=0;recursiveResize=0;shape=mxgraph.aws4.group;grIcon=mxgraph.aws4.group_vpc2;strokeColor=#8C4FFF;fillColor=none;verticalAlign=top;align=left;spacingLeft=30;fontColor=#AAB7B8;dashed=0;strokeWidth=2;" vertex="1" parent="aNjRSBL3TXVuBhrkCqzv-42">
          <mxGeometry x="30" y="110" width="920" height="140" as="geometry" />
        </mxCell>
        <mxCell id="aNjRSBL3TXVuBhrkCqzv-62" value="&lt;b&gt;Subnet-1&lt;/b&gt;" style="sketch=0;outlineConnect=0;gradientColor=none;html=1;whiteSpace=wrap;fontSize=12;fontStyle=0;shape=mxgraph.aws4.group;grIcon=mxgraph.aws4.group_subnet;strokeColor=#879196;fillColor=none;verticalAlign=top;align=left;spacingLeft=30;fontColor=#879196;dashed=0;" vertex="1" parent="aNjRSBL3TXVuBhrkCqzv-55">
          <mxGeometry x="150" y="5" width="210" height="125" as="geometry" />
        </mxCell>
        <mxCell id="aNjRSBL3TXVuBhrkCqzv-63" value="&lt;b&gt;Subnet-2&lt;/b&gt;" style="sketch=0;outlineConnect=0;gradientColor=none;html=1;whiteSpace=wrap;fontSize=12;fontStyle=0;shape=mxgraph.aws4.group;grIcon=mxgraph.aws4.group_subnet;strokeColor=#879196;fillColor=none;verticalAlign=top;align=left;spacingLeft=30;fontColor=#879196;dashed=0;" vertex="1" parent="aNjRSBL3TXVuBhrkCqzv-55">
          <mxGeometry x="590" y="7.5" width="210" height="125" as="geometry" />
        </mxCell>
        <mxCell id="aNjRSBL3TXVuBhrkCqzv-70" style="edgeStyle=orthogonalEdgeStyle;rounded=0;orthogonalLoop=1;jettySize=auto;html=1;startArrow=classic;startFill=1;" edge="1" parent="aNjRSBL3TXVuBhrkCqzv-55" source="aNjRSBL3TXVuBhrkCqzv-66" target="aNjRSBL3TXVuBhrkCqzv-67">
          <mxGeometry relative="1" as="geometry" />
        </mxCell>
        <mxCell id="aNjRSBL3TXVuBhrkCqzv-66" value="" style="sketch=0;points=[[0,0,0],[0.25,0,0],[0.5,0,0],[0.75,0,0],[1,0,0],[0,1,0],[0.25,1,0],[0.5,1,0],[0.75,1,0],[1,1,0],[0,0.25,0],[0,0.5,0],[0,0.75,0],[1,0.25,0],[1,0.5,0],[1,0.75,0]];outlineConnect=0;fontColor=#232F3E;fillColor=#ED7100;strokeColor=#ffffff;dashed=0;verticalLabelPosition=bottom;verticalAlign=top;align=center;html=1;fontSize=12;fontStyle=0;aspect=fixed;shape=mxgraph.aws4.resourceIcon;resIcon=mxgraph.aws4.ec2;" vertex="1" parent="aNjRSBL3TXVuBhrkCqzv-55">
          <mxGeometry x="235" y="50.5" width="40" height="40" as="geometry" />
        </mxCell>
        <mxCell id="aNjRSBL3TXVuBhrkCqzv-67" value="" style="sketch=0;points=[[0,0,0],[0.25,0,0],[0.5,0,0],[0.75,0,0],[1,0,0],[0,1,0],[0.25,1,0],[0.5,1,0],[0.75,1,0],[1,1,0],[0,0.25,0],[0,0.5,0],[0,0.75,0],[1,0.25,0],[1,0.5,0],[1,0.75,0]];outlineConnect=0;fontColor=#232F3E;fillColor=#ED7100;strokeColor=#ffffff;dashed=0;verticalLabelPosition=bottom;verticalAlign=top;align=center;html=1;fontSize=12;fontStyle=0;aspect=fixed;shape=mxgraph.aws4.resourceIcon;resIcon=mxgraph.aws4.ec2;" vertex="1" parent="aNjRSBL3TXVuBhrkCqzv-55">
          <mxGeometry x="670" y="50" width="40" height="40" as="geometry" />
        </mxCell>
        <mxCell id="aNjRSBL3TXVuBhrkCqzv-69" value="" style="verticalLabelPosition=bottom;verticalAlign=top;html=1;shape=mxgraph.basic.tick;fillColor=#008a00;strokeColor=#005700;fontColor=#ffffff;" vertex="1" parent="aNjRSBL3TXVuBhrkCqzv-55">
          <mxGeometry x="450" y="57.5" width="20" height="20" as="geometry" />
        </mxCell>
        <mxCell id="aNjRSBL3TXVuBhrkCqzv-60" value="&lt;b&gt;&lt;font color=&quot;#000000&quot;&gt;VPC - 2&lt;/font&gt;&lt;/b&gt;" style="points=[[0,0],[0.25,0],[0.5,0],[0.75,0],[1,0],[1,0.25],[1,0.5],[1,0.75],[1,1],[0.75,1],[0.5,1],[0.25,1],[0,1],[0,0.75],[0,0.5],[0,0.25]];outlineConnect=0;gradientColor=none;html=1;whiteSpace=wrap;fontSize=12;fontStyle=0;container=1;pointerEvents=0;collapsible=0;recursiveResize=0;shape=mxgraph.aws4.group;grIcon=mxgraph.aws4.group_vpc2;strokeColor=#8C4FFF;fillColor=none;verticalAlign=top;align=left;spacingLeft=30;fontColor=#AAB7B8;dashed=0;strokeWidth=2;" vertex="1" parent="aNjRSBL3TXVuBhrkCqzv-42">
          <mxGeometry x="30" y="310" width="920" height="140" as="geometry" />
        </mxCell>
        <mxCell id="aNjRSBL3TXVuBhrkCqzv-64" value="&lt;b&gt;Subnet-2&lt;/b&gt;" style="sketch=0;outlineConnect=0;gradientColor=none;html=1;whiteSpace=wrap;fontSize=12;fontStyle=0;shape=mxgraph.aws4.group;grIcon=mxgraph.aws4.group_subnet;strokeColor=#879196;fillColor=none;verticalAlign=top;align=left;spacingLeft=30;fontColor=#879196;dashed=0;" vertex="1" parent="aNjRSBL3TXVuBhrkCqzv-60">
          <mxGeometry x="590" y="7.5" width="210" height="125" as="geometry" />
        </mxCell>
        <mxCell id="aNjRSBL3TXVuBhrkCqzv-65" value="&lt;b&gt;Subnet-1&lt;/b&gt;" style="sketch=0;outlineConnect=0;gradientColor=none;html=1;whiteSpace=wrap;fontSize=12;fontStyle=0;shape=mxgraph.aws4.group;grIcon=mxgraph.aws4.group_subnet;strokeColor=#879196;fillColor=none;verticalAlign=top;align=left;spacingLeft=30;fontColor=#879196;dashed=0;" vertex="1" parent="aNjRSBL3TXVuBhrkCqzv-60">
          <mxGeometry x="150" y="7.5" width="210" height="125" as="geometry" />
        </mxCell>
        <mxCell id="aNjRSBL3TXVuBhrkCqzv-68" value="" style="sketch=0;points=[[0,0,0],[0.25,0,0],[0.5,0,0],[0.75,0,0],[1,0,0],[0,1,0],[0.25,1,0],[0.5,1,0],[0.75,1,0],[1,1,0],[0,0.25,0],[0,0.5,0],[0,0.75,0],[1,0.25,0],[1,0.5,0],[1,0.75,0]];outlineConnect=0;fontColor=#232F3E;fillColor=#ED7100;strokeColor=#ffffff;dashed=0;verticalLabelPosition=bottom;verticalAlign=top;align=center;html=1;fontSize=12;fontStyle=0;aspect=fixed;shape=mxgraph.aws4.resourceIcon;resIcon=mxgraph.aws4.ec2;" vertex="1" parent="aNjRSBL3TXVuBhrkCqzv-60">
          <mxGeometry x="235" y="50" width="40" height="40" as="geometry" />
        </mxCell>
        <mxCell id="aNjRSBL3TXVuBhrkCqzv-72" value="" style="shape=mxgraph.mockup.markup.redX;fillColor=#ff0000;html=1;shadow=0;whiteSpace=wrap;strokeColor=none;" vertex="1" parent="aNjRSBL3TXVuBhrkCqzv-42">
          <mxGeometry x="274" y="270" width="20" height="20" as="geometry" />
        </mxCell>
        <mxCell id="aNjRSBL3TXVuBhrkCqzv-73" style="edgeStyle=orthogonalEdgeStyle;rounded=0;orthogonalLoop=1;jettySize=auto;html=1;startArrow=classic;startFill=1;" edge="1" parent="aNjRSBL3TXVuBhrkCqzv-42" source="aNjRSBL3TXVuBhrkCqzv-66" target="aNjRSBL3TXVuBhrkCqzv-68">
          <mxGeometry relative="1" as="geometry" />
        </mxCell>
      </root>
    </mxGraphModel>
  </diagram>
  <diagram id="ecvcvQ1P8LOWvRZxDRlw" name="igw">
    <mxGraphModel dx="1194" dy="1562" grid="1" gridSize="10" guides="1" tooltips="1" connect="1" arrows="1" fold="1" page="0" pageScale="1" pageWidth="850" pageHeight="1100" math="0" shadow="0">
      <root>
        <mxCell id="0" />
        <mxCell id="1" parent="0" />
        <mxCell id="c0PoHex8QBm5lAkAgrWL-1" value="Private subnet" style="points=[[0,0],[0.25,0],[0.5,0],[0.75,0],[1,0],[1,0.25],[1,0.5],[1,0.75],[1,1],[0.75,1],[0.5,1],[0.25,1],[0,1],[0,0.75],[0,0.5],[0,0.25]];outlineConnect=0;gradientColor=none;html=1;whiteSpace=wrap;fontSize=12;fontStyle=0;container=1;pointerEvents=0;collapsible=0;recursiveResize=0;shape=mxgraph.aws4.group;grIcon=mxgraph.aws4.group_security_group;grStroke=0;strokeColor=#147EBA;fillColor=#E6F2F8;verticalAlign=top;align=left;spacingLeft=30;fontColor=#147EBA;dashed=0;" vertex="1" parent="1">
          <mxGeometry x="310" y="-60" width="320" height="120" as="geometry" />
        </mxCell>
        <mxCell id="c0PoHex8QBm5lAkAgrWL-3" value="Public subnet" style="points=[[0,0],[0.25,0],[0.5,0],[0.75,0],[1,0],[1,0.25],[1,0.5],[1,0.75],[1,1],[0.75,1],[0.5,1],[0.25,1],[0,1],[0,0.75],[0,0.5],[0,0.25]];outlineConnect=0;gradientColor=none;html=1;whiteSpace=wrap;fontSize=12;fontStyle=0;container=1;pointerEvents=0;collapsible=0;recursiveResize=0;shape=mxgraph.aws4.group;grIcon=mxgraph.aws4.group_security_group;grStroke=0;strokeColor=#248814;fillColor=#E9F3E6;verticalAlign=top;align=left;spacingLeft=30;fontColor=#248814;dashed=0;" vertex="1" parent="1">
          <mxGeometry x="310" y="-220" width="320" height="120" as="geometry" />
        </mxCell>
        <mxCell id="pQO3zih64W3s78rK2fIn-5" value="VPC" style="sketch=0;outlineConnect=0;html=1;whiteSpace=wrap;fontSize=12;fontStyle=0;shape=mxgraph.aws4.group;grIcon=mxgraph.aws4.group_vpc;strokeColor=#9673a6;fillColor=none;verticalAlign=top;align=left;spacingLeft=30;dashed=0;strokeWidth=2;" vertex="1" parent="1">
          <mxGeometry x="240" y="-285" width="420" height="375" as="geometry" />
        </mxCell>
        <mxCell id="pQO3zih64W3s78rK2fIn-11" style="edgeStyle=orthogonalEdgeStyle;rounded=0;orthogonalLoop=1;jettySize=auto;html=1;startArrow=classic;startFill=1;" edge="1" parent="1" source="pQO3zih64W3s78rK2fIn-6" target="pQO3zih64W3s78rK2fIn-7">
          <mxGeometry relative="1" as="geometry">
            <Array as="points">
              <mxPoint x="459" y="-440" />
            </Array>
          </mxGeometry>
        </mxCell>
        <mxCell id="pQO3zih64W3s78rK2fIn-6" value="" style="sketch=0;outlineConnect=0;fontColor=#232F3E;gradientColor=none;fillColor=#8C4FFF;strokeColor=none;dashed=0;verticalLabelPosition=bottom;verticalAlign=top;align=center;html=1;fontSize=12;fontStyle=0;aspect=fixed;pointerEvents=1;shape=mxgraph.aws4.internet_gateway;" vertex="1" parent="1">
          <mxGeometry x="430" y="-320" width="58" height="58" as="geometry" />
        </mxCell>
        <mxCell id="pQO3zih64W3s78rK2fIn-7" value="Internet" style="sketch=0;outlineConnect=0;fontColor=#232F3E;gradientColor=none;strokeColor=#232F3E;fillColor=#ffffff;dashed=0;verticalLabelPosition=bottom;verticalAlign=top;align=center;html=1;fontSize=12;fontStyle=0;aspect=fixed;shape=mxgraph.aws4.resourceIcon;resIcon=mxgraph.aws4.internet;" vertex="1" parent="1">
          <mxGeometry x="230" y="-500" width="110" height="110" as="geometry" />
        </mxCell>
        <mxCell id="pQO3zih64W3s78rK2fIn-10" value="&lt;span style=&quot;font-family: Helvetica; font-size: 12px; font-style: normal; font-variant-ligatures: normal; font-variant-caps: normal; font-weight: 400; letter-spacing: normal; orphans: 2; text-align: center; text-indent: 0px; text-transform: none; widows: 2; word-spacing: 0px; -webkit-text-stroke-width: 0px; background-color: rgb(255, 255, 255); text-decoration-thickness: initial; text-decoration-style: initial; text-decoration-color: initial; float: none; display: inline !important;&quot;&gt;&lt;font color=&quot;#7f00ff&quot;&gt;Internet Gateway&lt;/font&gt;&lt;/span&gt;" style="text;whiteSpace=wrap;html=1;" vertex="1" parent="1">
          <mxGeometry x="490" y="-315" width="100" height="30" as="geometry" />
        </mxCell>
        <mxCell id="pQO3zih64W3s78rK2fIn-13" style="edgeStyle=orthogonalEdgeStyle;rounded=0;orthogonalLoop=1;jettySize=auto;html=1;startArrow=classic;startFill=1;" edge="1" parent="1" source="pQO3zih64W3s78rK2fIn-12" target="pQO3zih64W3s78rK2fIn-6">
          <mxGeometry relative="1" as="geometry" />
        </mxCell>
        <mxCell id="pQO3zih64W3s78rK2fIn-12" value="EC2" style="sketch=0;points=[[0,0,0],[0.25,0,0],[0.5,0,0],[0.75,0,0],[1,0,0],[0,1,0],[0.25,1,0],[0.5,1,0],[0.75,1,0],[1,1,0],[0,0.25,0],[0,0.5,0],[0,0.75,0],[1,0.25,0],[1,0.5,0],[1,0.75,0]];outlineConnect=0;fontColor=#232F3E;fillColor=#ED7100;strokeColor=#ffffff;dashed=0;verticalLabelPosition=bottom;verticalAlign=top;align=center;html=1;fontSize=12;fontStyle=0;aspect=fixed;shape=mxgraph.aws4.resourceIcon;resIcon=mxgraph.aws4.ec2;" vertex="1" parent="1">
          <mxGeometry x="430" y="-189.5" width="59" height="59" as="geometry" />
        </mxCell>
      </root>
    </mxGraphModel>
  </diagram>
  <diagram id="MX6i7InCvHlkcldajaG5" name="nat">
    <mxGraphModel dx="1194" dy="1562" grid="1" gridSize="10" guides="1" tooltips="1" connect="1" arrows="1" fold="1" page="0" pageScale="1" pageWidth="850" pageHeight="1100" math="0" shadow="0">
      <root>
        <mxCell id="0" />
        <mxCell id="1" parent="0" />
        <mxCell id="l_IyuC0vvB0Le_I9vcJO-1" value="Private subnet" style="points=[[0,0],[0.25,0],[0.5,0],[0.75,0],[1,0],[1,0.25],[1,0.5],[1,0.75],[1,1],[0.75,1],[0.5,1],[0.25,1],[0,1],[0,0.75],[0,0.5],[0,0.25]];outlineConnect=0;gradientColor=none;html=1;whiteSpace=wrap;fontSize=12;fontStyle=0;container=1;pointerEvents=0;collapsible=0;recursiveResize=0;shape=mxgraph.aws4.group;grIcon=mxgraph.aws4.group_security_group;grStroke=0;strokeColor=#147EBA;fillColor=#E6F2F8;verticalAlign=top;align=left;spacingLeft=30;fontColor=#147EBA;dashed=0;" vertex="1" parent="1">
          <mxGeometry x="310" y="-60" width="320" height="120" as="geometry" />
        </mxCell>
        <mxCell id="l_IyuC0vvB0Le_I9vcJO-2" value="Public subnet" style="points=[[0,0],[0.25,0],[0.5,0],[0.75,0],[1,0],[1,0.25],[1,0.5],[1,0.75],[1,1],[0.75,1],[0.5,1],[0.25,1],[0,1],[0,0.75],[0,0.5],[0,0.25]];outlineConnect=0;gradientColor=none;html=1;whiteSpace=wrap;fontSize=12;fontStyle=0;container=1;pointerEvents=0;collapsible=0;recursiveResize=0;shape=mxgraph.aws4.group;grIcon=mxgraph.aws4.group_security_group;grStroke=0;strokeColor=#248814;fillColor=#E9F3E6;verticalAlign=top;align=left;spacingLeft=30;fontColor=#248814;dashed=0;" vertex="1" parent="1">
          <mxGeometry x="310" y="-220" width="320" height="120" as="geometry" />
        </mxCell>
        <mxCell id="l_IyuC0vvB0Le_I9vcJO-3" value="VPC" style="sketch=0;outlineConnect=0;html=1;whiteSpace=wrap;fontSize=12;fontStyle=0;shape=mxgraph.aws4.group;grIcon=mxgraph.aws4.group_vpc;strokeColor=#9673a6;fillColor=none;verticalAlign=top;align=left;spacingLeft=30;dashed=0;strokeWidth=2;" vertex="1" parent="1">
          <mxGeometry x="240" y="-285" width="420" height="375" as="geometry" />
        </mxCell>
        <mxCell id="l_IyuC0vvB0Le_I9vcJO-4" style="edgeStyle=orthogonalEdgeStyle;rounded=0;orthogonalLoop=1;jettySize=auto;html=1;startArrow=classic;startFill=1;" edge="1" parent="1" source="l_IyuC0vvB0Le_I9vcJO-6" target="l_IyuC0vvB0Le_I9vcJO-7">
          <mxGeometry relative="1" as="geometry">
            <Array as="points">
              <mxPoint x="459" y="-440" />
            </Array>
          </mxGeometry>
        </mxCell>
        <mxCell id="l_IyuC0vvB0Le_I9vcJO-5" style="edgeStyle=orthogonalEdgeStyle;rounded=0;orthogonalLoop=1;jettySize=auto;html=1;startArrow=classic;startFill=1;endArrow=none;endFill=0;" edge="1" parent="1" source="l_IyuC0vvB0Le_I9vcJO-6" target="l_IyuC0vvB0Le_I9vcJO-13">
          <mxGeometry relative="1" as="geometry">
            <Array as="points">
              <mxPoint x="550" y="-270" />
            </Array>
          </mxGeometry>
        </mxCell>
        <mxCell id="l_IyuC0vvB0Le_I9vcJO-6" value="" style="sketch=0;outlineConnect=0;fontColor=#232F3E;gradientColor=none;fillColor=#8C4FFF;strokeColor=none;dashed=0;verticalLabelPosition=bottom;verticalAlign=top;align=center;html=1;fontSize=12;fontStyle=0;aspect=fixed;pointerEvents=1;shape=mxgraph.aws4.internet_gateway;" vertex="1" parent="1">
          <mxGeometry x="430" y="-320" width="58" height="58" as="geometry" />
        </mxCell>
        <mxCell id="l_IyuC0vvB0Le_I9vcJO-7" value="Internet" style="sketch=0;outlineConnect=0;fontColor=#232F3E;gradientColor=none;strokeColor=#232F3E;fillColor=#ffffff;dashed=0;verticalLabelPosition=bottom;verticalAlign=top;align=center;html=1;fontSize=12;fontStyle=0;aspect=fixed;shape=mxgraph.aws4.resourceIcon;resIcon=mxgraph.aws4.internet;" vertex="1" parent="1">
          <mxGeometry x="230" y="-500" width="110" height="110" as="geometry" />
        </mxCell>
        <mxCell id="l_IyuC0vvB0Le_I9vcJO-8" value="&lt;span style=&quot;font-family: Helvetica; font-size: 12px; font-style: normal; font-variant-ligatures: normal; font-variant-caps: normal; font-weight: 400; letter-spacing: normal; orphans: 2; text-align: center; text-indent: 0px; text-transform: none; widows: 2; word-spacing: 0px; -webkit-text-stroke-width: 0px; background-color: rgb(255, 255, 255); text-decoration-thickness: initial; text-decoration-style: initial; text-decoration-color: initial; float: none; display: inline !important;&quot;&gt;&lt;font color=&quot;#7f00ff&quot;&gt;Internet Gateway&lt;/font&gt;&lt;/span&gt;" style="text;whiteSpace=wrap;html=1;" vertex="1" parent="1">
          <mxGeometry x="490" y="-315" width="100" height="30" as="geometry" />
        </mxCell>
        <mxCell id="l_IyuC0vvB0Le_I9vcJO-9" style="edgeStyle=orthogonalEdgeStyle;rounded=0;orthogonalLoop=1;jettySize=auto;html=1;startArrow=classic;startFill=1;" edge="1" parent="1" source="l_IyuC0vvB0Le_I9vcJO-10" target="l_IyuC0vvB0Le_I9vcJO-6">
          <mxGeometry relative="1" as="geometry" />
        </mxCell>
        <mxCell id="l_IyuC0vvB0Le_I9vcJO-10" value="EC2" style="sketch=0;points=[[0,0,0],[0.25,0,0],[0.5,0,0],[0.75,0,0],[1,0,0],[0,1,0],[0.25,1,0],[0.5,1,0],[0.75,1,0],[1,1,0],[0,0.25,0],[0,0.5,0],[0,0.75,0],[1,0.25,0],[1,0.5,0],[1,0.75,0]];outlineConnect=0;fontColor=#232F3E;fillColor=#ED7100;strokeColor=#ffffff;dashed=0;verticalLabelPosition=bottom;verticalAlign=top;align=center;html=1;fontSize=12;fontStyle=0;aspect=fixed;shape=mxgraph.aws4.resourceIcon;resIcon=mxgraph.aws4.ec2;" vertex="1" parent="1">
          <mxGeometry x="430" y="-189.5" width="59" height="59" as="geometry" />
        </mxCell>
        <mxCell id="l_IyuC0vvB0Le_I9vcJO-11" style="edgeStyle=orthogonalEdgeStyle;rounded=0;orthogonalLoop=1;jettySize=auto;html=1;" edge="1" parent="1" source="l_IyuC0vvB0Le_I9vcJO-12" target="l_IyuC0vvB0Le_I9vcJO-13">
          <mxGeometry relative="1" as="geometry" />
        </mxCell>
        <mxCell id="l_IyuC0vvB0Le_I9vcJO-12" value="EC2" style="sketch=0;points=[[0,0,0],[0.25,0,0],[0.5,0,0],[0.75,0,0],[1,0,0],[0,1,0],[0.25,1,0],[0.5,1,0],[0.75,1,0],[1,1,0],[0,0.25,0],[0,0.5,0],[0,0.75,0],[1,0.25,0],[1,0.5,0],[1,0.75,0]];outlineConnect=0;fontColor=#232F3E;fillColor=#ED7100;strokeColor=#ffffff;dashed=0;verticalLabelPosition=bottom;verticalAlign=top;align=center;html=1;fontSize=12;fontStyle=0;aspect=fixed;shape=mxgraph.aws4.resourceIcon;resIcon=mxgraph.aws4.ec2;" vertex="1" parent="1">
          <mxGeometry x="431" y="-29.5" width="59" height="59" as="geometry" />
        </mxCell>
        <mxCell id="l_IyuC0vvB0Le_I9vcJO-13" value="" style="sketch=0;outlineConnect=0;fontColor=#232F3E;gradientColor=none;fillColor=#8C4FFF;strokeColor=none;dashed=0;verticalLabelPosition=bottom;verticalAlign=top;align=center;html=1;fontSize=12;fontStyle=0;aspect=fixed;pointerEvents=1;shape=mxgraph.aws4.nat_gateway;" vertex="1" parent="1">
          <mxGeometry x="520" y="-189.5" width="59" height="59" as="geometry" />
        </mxCell>
        <mxCell id="l_IyuC0vvB0Le_I9vcJO-14" value="&lt;span style=&quot;font-family: Helvetica; font-size: 12px; font-style: normal; font-variant-ligatures: normal; font-variant-caps: normal; font-weight: 400; letter-spacing: normal; orphans: 2; text-align: center; text-indent: 0px; text-transform: none; widows: 2; word-spacing: 0px; -webkit-text-stroke-width: 0px; background-color: rgb(255, 255, 255); text-decoration-thickness: initial; text-decoration-style: initial; text-decoration-color: initial; float: none; display: inline !important;&quot;&gt;&lt;font color=&quot;#7f00ff&quot;&gt;NAT&lt;br&gt;Gateway&lt;/font&gt;&lt;/span&gt;" style="text;whiteSpace=wrap;html=1;" vertex="1" parent="1">
          <mxGeometry x="583" y="-180" width="61" height="30" as="geometry" />
        </mxCell>
      </root>
    </mxGraphModel>
  </diagram>
  <diagram id="SOm-TPlDYudWIYZBsca2" name="rt">
    <mxGraphModel dx="2237" dy="1972" grid="1" gridSize="10" guides="1" tooltips="1" connect="1" arrows="1" fold="1" page="0" pageScale="1" pageWidth="850" pageHeight="1100" math="0" shadow="0">
      <root>
        <mxCell id="0" />
        <mxCell id="1" parent="0" />
        <mxCell id="sb46I_eDDh-06AFa9yHY-3" value="VPC&lt;br&gt;10.1.0.0/16" style="sketch=0;outlineConnect=0;html=1;whiteSpace=wrap;fontSize=12;fontStyle=0;shape=mxgraph.aws4.group;grIcon=mxgraph.aws4.group_vpc;strokeColor=#9673a6;fillColor=none;verticalAlign=top;align=left;spacingLeft=30;dashed=0;strokeWidth=2;" vertex="1" parent="1">
          <mxGeometry x="240" y="-285" width="420" height="375" as="geometry" />
        </mxCell>
        <mxCell id="sb46I_eDDh-06AFa9yHY-1" value="Private subnet&lt;br&gt;10.1.1.0/24" style="points=[[0,0],[0.25,0],[0.5,0],[0.75,0],[1,0],[1,0.25],[1,0.5],[1,0.75],[1,1],[0.75,1],[0.5,1],[0.25,1],[0,1],[0,0.75],[0,0.5],[0,0.25]];outlineConnect=0;gradientColor=none;html=1;whiteSpace=wrap;fontSize=12;fontStyle=0;container=1;pointerEvents=0;collapsible=0;recursiveResize=0;shape=mxgraph.aws4.group;grIcon=mxgraph.aws4.group_security_group;grStroke=0;strokeColor=#147EBA;fillColor=#E6F2F8;verticalAlign=top;align=left;spacingLeft=30;fontColor=#147EBA;dashed=0;" vertex="1" parent="1">
          <mxGeometry x="310" y="-60" width="320" height="120" as="geometry" />
        </mxCell>
        <mxCell id="sb46I_eDDh-06AFa9yHY-4" style="edgeStyle=orthogonalEdgeStyle;rounded=0;orthogonalLoop=1;jettySize=auto;html=1;startArrow=classic;startFill=1;" edge="1" parent="1" source="sb46I_eDDh-06AFa9yHY-5" target="sb46I_eDDh-06AFa9yHY-6">
          <mxGeometry relative="1" as="geometry">
            <Array as="points">
              <mxPoint x="459" y="-440" />
            </Array>
          </mxGeometry>
        </mxCell>
        <mxCell id="sb46I_eDDh-06AFa9yHY-5" value="" style="sketch=0;outlineConnect=0;fontColor=#232F3E;gradientColor=none;fillColor=#8C4FFF;strokeColor=none;dashed=0;verticalLabelPosition=bottom;verticalAlign=top;align=center;html=1;fontSize=12;fontStyle=0;aspect=fixed;pointerEvents=1;shape=mxgraph.aws4.internet_gateway;" vertex="1" parent="1">
          <mxGeometry x="430" y="-320" width="58" height="58" as="geometry" />
        </mxCell>
        <mxCell id="sb46I_eDDh-06AFa9yHY-6" value="Internet" style="sketch=0;outlineConnect=0;fontColor=#232F3E;gradientColor=none;strokeColor=#232F3E;fillColor=#ffffff;dashed=0;verticalLabelPosition=bottom;verticalAlign=top;align=center;html=1;fontSize=12;fontStyle=0;aspect=fixed;shape=mxgraph.aws4.resourceIcon;resIcon=mxgraph.aws4.internet;" vertex="1" parent="1">
          <mxGeometry x="230" y="-500" width="110" height="110" as="geometry" />
        </mxCell>
        <mxCell id="sb46I_eDDh-06AFa9yHY-7" value="&lt;span style=&quot;font-family: Helvetica; font-size: 12px; font-style: normal; font-variant-ligatures: normal; font-variant-caps: normal; font-weight: 400; letter-spacing: normal; orphans: 2; text-align: center; text-indent: 0px; text-transform: none; widows: 2; word-spacing: 0px; -webkit-text-stroke-width: 0px; background-color: rgb(255, 255, 255); text-decoration-thickness: initial; text-decoration-style: initial; text-decoration-color: initial; float: none; display: inline !important;&quot;&gt;&lt;font color=&quot;#7f00ff&quot;&gt;Internet Gateway&lt;/font&gt;&lt;/span&gt;" style="text;whiteSpace=wrap;html=1;" vertex="1" parent="1">
          <mxGeometry x="490" y="-315" width="100" height="30" as="geometry" />
        </mxCell>
        <mxCell id="sb46I_eDDh-06AFa9yHY-8" style="edgeStyle=orthogonalEdgeStyle;rounded=0;orthogonalLoop=1;jettySize=auto;html=1;startArrow=classic;startFill=1;" edge="1" parent="1" source="sb46I_eDDh-06AFa9yHY-9" target="sb46I_eDDh-06AFa9yHY-5">
          <mxGeometry relative="1" as="geometry" />
        </mxCell>
        <mxCell id="sb46I_eDDh-06AFa9yHY-10" value="EC2" style="sketch=0;points=[[0,0,0],[0.25,0,0],[0.5,0,0],[0.75,0,0],[1,0,0],[0,1,0],[0.25,1,0],[0.5,1,0],[0.75,1,0],[1,1,0],[0,0.25,0],[0,0.5,0],[0,0.75,0],[1,0.25,0],[1,0.5,0],[1,0.75,0]];outlineConnect=0;fontColor=#232F3E;fillColor=#ED7100;strokeColor=#ffffff;dashed=0;verticalLabelPosition=bottom;verticalAlign=top;align=center;html=1;fontSize=12;fontStyle=0;aspect=fixed;shape=mxgraph.aws4.resourceIcon;resIcon=mxgraph.aws4.ec2;" vertex="1" parent="1">
          <mxGeometry x="431" y="-29.5" width="59" height="59" as="geometry" />
        </mxCell>
        <mxCell id="sb46I_eDDh-06AFa9yHY-2" value="Public subnet&lt;br&gt;10.1.0.0/24" style="points=[[0,0],[0.25,0],[0.5,0],[0.75,0],[1,0],[1,0.25],[1,0.5],[1,0.75],[1,1],[0.75,1],[0.5,1],[0.25,1],[0,1],[0,0.75],[0,0.5],[0,0.25]];outlineConnect=0;gradientColor=none;html=1;whiteSpace=wrap;fontSize=12;fontStyle=0;container=1;pointerEvents=0;collapsible=0;recursiveResize=0;shape=mxgraph.aws4.group;grIcon=mxgraph.aws4.group_security_group;grStroke=0;strokeColor=#248814;fillColor=#E9F3E6;verticalAlign=top;align=left;spacingLeft=30;fontColor=#248814;dashed=0;" vertex="1" parent="1">
          <mxGeometry x="310" y="-220" width="320" height="120" as="geometry" />
        </mxCell>
        <mxCell id="sb46I_eDDh-06AFa9yHY-9" value="EC2" style="sketch=0;points=[[0,0,0],[0.25,0,0],[0.5,0,0],[0.75,0,0],[1,0,0],[0,1,0],[0.25,1,0],[0.5,1,0],[0.75,1,0],[1,1,0],[0,0.25,0],[0,0.5,0],[0,0.75,0],[1,0.25,0],[1,0.5,0],[1,0.75,0]];outlineConnect=0;fontColor=#232F3E;fillColor=#ED7100;strokeColor=#ffffff;dashed=0;verticalLabelPosition=bottom;verticalAlign=top;align=center;html=1;fontSize=12;fontStyle=0;aspect=fixed;shape=mxgraph.aws4.resourceIcon;resIcon=mxgraph.aws4.ec2;" vertex="1" parent="1">
          <mxGeometry x="430" y="-189.5" width="59" height="59" as="geometry" />
        </mxCell>
        <mxCell id="sb46I_eDDh-06AFa9yHY-11" value="" style="sketch=0;outlineConnect=0;fontColor=#232F3E;gradientColor=none;fillColor=#8C4FFF;strokeColor=none;dashed=0;verticalLabelPosition=bottom;verticalAlign=top;align=center;html=1;fontSize=12;fontStyle=0;aspect=fixed;pointerEvents=1;shape=mxgraph.aws4.nat_gateway;" vertex="1" parent="1">
          <mxGeometry x="520" y="-189.5" width="59" height="59" as="geometry" />
        </mxCell>
        <mxCell id="sb46I_eDDh-06AFa9yHY-12" value="&lt;span style=&quot;font-family: Helvetica; font-size: 12px; font-style: normal; font-variant-ligatures: normal; font-variant-caps: normal; font-weight: 400; letter-spacing: normal; orphans: 2; text-align: center; text-indent: 0px; text-transform: none; widows: 2; word-spacing: 0px; -webkit-text-stroke-width: 0px; background-color: rgb(255, 255, 255); text-decoration-thickness: initial; text-decoration-style: initial; text-decoration-color: initial; float: none; display: inline !important;&quot;&gt;&lt;font color=&quot;#7f00ff&quot;&gt;NAT&lt;br&gt;Gateway&lt;/font&gt;&lt;/span&gt;" style="text;whiteSpace=wrap;html=1;" vertex="1" parent="1">
          <mxGeometry x="583" y="-180" width="61" height="30" as="geometry" />
        </mxCell>
        <mxCell id="_auU981rMfrE2O-ObKUx-22" value="Destination" style="connectable=0;recursiveResize=0;strokeColor=#82b366;fillColor=#d5e8d4;align=center;fontStyle=1;html=1;" vertex="1" parent="1">
          <mxGeometry x="-60" y="-200" width="110" height="33" as="geometry">
            <mxRectangle width="60" height="33" as="alternateBounds" />
          </mxGeometry>
        </mxCell>
        <mxCell id="_auU981rMfrE2O-ObKUx-23" value="Target" style="connectable=0;recursiveResize=0;strokeColor=#82b366;fillColor=#d5e8d4;align=center;fontStyle=1;html=1;" vertex="1" parent="1">
          <mxGeometry x="50" y="-200" width="110" height="33" as="geometry">
            <mxRectangle width="60" height="33" as="alternateBounds" />
          </mxGeometry>
        </mxCell>
        <mxCell id="_auU981rMfrE2O-ObKUx-24" value="10.1.0.0/16" style="connectable=0;recursiveResize=0;strokeColor=inherit;fillColor=inherit;align=center;whiteSpace=wrap;html=1;" vertex="1" parent="1">
          <mxGeometry x="-60" y="-167" width="110" height="27" as="geometry">
            <mxRectangle width="60" height="27" as="alternateBounds" />
          </mxGeometry>
        </mxCell>
        <mxCell id="_auU981rMfrE2O-ObKUx-25" value="local" style="connectable=0;recursiveResize=0;strokeColor=inherit;fillColor=inherit;align=center;whiteSpace=wrap;html=1;" vertex="1" parent="1">
          <mxGeometry x="50" y="-167" width="110" height="27" as="geometry">
            <mxRectangle width="60" height="27" as="alternateBounds" />
          </mxGeometry>
        </mxCell>
        <mxCell id="_auU981rMfrE2O-ObKUx-32" value="&lt;table&gt;&lt;tbody&gt;&lt;tr&gt;&lt;td&gt;0.0.0.0/0&lt;/td&gt;&lt;td&gt;&lt;/td&gt;&lt;/tr&gt;&lt;/tbody&gt;&lt;/table&gt;" style="connectable=0;recursiveResize=0;strokeColor=inherit;fillColor=inherit;align=center;whiteSpace=wrap;html=1;" vertex="1" parent="1">
          <mxGeometry x="-60" y="-140" width="110" height="27" as="geometry">
            <mxRectangle width="60" height="27" as="alternateBounds" />
          </mxGeometry>
        </mxCell>
        <mxCell id="_auU981rMfrE2O-ObKUx-33" value="internet-gw-id" style="connectable=0;recursiveResize=0;strokeColor=inherit;fillColor=inherit;align=center;whiteSpace=wrap;html=1;" vertex="1" parent="1">
          <mxGeometry x="50" y="-140" width="110" height="27" as="geometry">
            <mxRectangle width="60" height="27" as="alternateBounds" />
          </mxGeometry>
        </mxCell>
        <mxCell id="_auU981rMfrE2O-ObKUx-35" value="Destination" style="connectable=0;recursiveResize=0;strokeColor=#6c8ebf;fillColor=#dae8fc;align=center;fontStyle=1;html=1;" vertex="1" parent="1">
          <mxGeometry x="-60" y="-29.5" width="110" height="33" as="geometry">
            <mxRectangle width="60" height="33" as="alternateBounds" />
          </mxGeometry>
        </mxCell>
        <mxCell id="_auU981rMfrE2O-ObKUx-36" value="Target" style="connectable=0;recursiveResize=0;strokeColor=#6c8ebf;fillColor=#dae8fc;align=center;fontStyle=1;html=1;" vertex="1" parent="1">
          <mxGeometry x="50" y="-29.5" width="110" height="33" as="geometry">
            <mxRectangle width="60" height="33" as="alternateBounds" />
          </mxGeometry>
        </mxCell>
        <mxCell id="_auU981rMfrE2O-ObKUx-37" value="10.1.0.0/16" style="connectable=0;recursiveResize=0;strokeColor=inherit;fillColor=inherit;align=center;whiteSpace=wrap;html=1;" vertex="1" parent="1">
          <mxGeometry x="-60" y="3.5" width="110" height="27" as="geometry">
            <mxRectangle width="60" height="27" as="alternateBounds" />
          </mxGeometry>
        </mxCell>
        <mxCell id="_auU981rMfrE2O-ObKUx-38" value="local" style="connectable=0;recursiveResize=0;strokeColor=inherit;fillColor=inherit;align=center;whiteSpace=wrap;html=1;" vertex="1" parent="1">
          <mxGeometry x="50" y="3.5" width="110" height="27" as="geometry">
            <mxRectangle width="60" height="27" as="alternateBounds" />
          </mxGeometry>
        </mxCell>
        <mxCell id="_auU981rMfrE2O-ObKUx-39" value="0.0.0.0/0" style="connectable=0;recursiveResize=0;strokeColor=inherit;fillColor=inherit;align=center;whiteSpace=wrap;html=1;" vertex="1" parent="1">
          <mxGeometry x="-60" y="30.5" width="110" height="27" as="geometry">
            <mxRectangle width="60" height="27" as="alternateBounds" />
          </mxGeometry>
        </mxCell>
        <mxCell id="_auU981rMfrE2O-ObKUx-40" value="nat-gw-id" style="connectable=0;recursiveResize=0;strokeColor=inherit;fillColor=inherit;align=center;whiteSpace=wrap;html=1;" vertex="1" parent="1">
          <mxGeometry x="50" y="30.5" width="110" height="27" as="geometry">
            <mxRectangle width="60" height="27" as="alternateBounds" />
          </mxGeometry>
        </mxCell>
        <mxCell id="_auU981rMfrE2O-ObKUx-41" value="" style="endArrow=none;dashed=1;html=1;dashPattern=1 3;strokeWidth=3;rounded=0;entryX=0.167;entryY=0.387;entryDx=0;entryDy=0;entryPerimeter=0;fillColor=#d5e8d4;strokeColor=#82b366;" edge="1" parent="1" target="sb46I_eDDh-06AFa9yHY-3">
          <mxGeometry width="50" height="50" relative="1" as="geometry">
            <mxPoint x="160" y="-140" as="sourcePoint" />
            <mxPoint x="300" y="-90" as="targetPoint" />
          </mxGeometry>
        </mxCell>
        <mxCell id="_auU981rMfrE2O-ObKUx-42" value="" style="endArrow=none;dashed=1;html=1;dashPattern=1 3;strokeWidth=3;rounded=0;entryX=0.167;entryY=0.387;entryDx=0;entryDy=0;entryPerimeter=0;fillColor=#dae8fc;strokeColor=#6c8ebf;" edge="1" parent="1">
          <mxGeometry width="50" height="50" relative="1" as="geometry">
            <mxPoint x="160" y="29.5" as="sourcePoint" />
            <mxPoint x="310" y="29.5" as="targetPoint" />
          </mxGeometry>
        </mxCell>
        <mxCell id="_auU981rMfrE2O-ObKUx-43" value="&lt;b&gt;Custom Public Subnet Route Table - 1&lt;/b&gt;" style="text;html=1;align=left;verticalAlign=middle;resizable=0;points=[];autosize=1;strokeColor=none;fillColor=none;" vertex="1" parent="1">
          <mxGeometry x="-60" y="-230" width="240" height="30" as="geometry" />
        </mxCell>
        <mxCell id="_auU981rMfrE2O-ObKUx-44" value="&lt;b&gt;Custom Private Subnet Route Table - 2&lt;/b&gt;" style="text;html=1;align=left;verticalAlign=middle;resizable=0;points=[];autosize=1;strokeColor=none;fillColor=none;" vertex="1" parent="1">
          <mxGeometry x="-60" y="-60" width="240" height="30" as="geometry" />
        </mxCell>
        <mxCell id="sb46I_eDDh-06AFa9yHY-13" style="edgeStyle=orthogonalEdgeStyle;rounded=0;orthogonalLoop=1;jettySize=auto;html=1;" edge="1" parent="1" source="sb46I_eDDh-06AFa9yHY-10" target="sb46I_eDDh-06AFa9yHY-11">
          <mxGeometry relative="1" as="geometry" />
        </mxCell>
        <mxCell id="sb46I_eDDh-06AFa9yHY-15" style="edgeStyle=orthogonalEdgeStyle;rounded=0;orthogonalLoop=1;jettySize=auto;html=1;startArrow=classic;startFill=1;endArrow=none;endFill=0;" edge="1" parent="1" source="sb46I_eDDh-06AFa9yHY-5" target="sb46I_eDDh-06AFa9yHY-11">
          <mxGeometry relative="1" as="geometry">
            <Array as="points">
              <mxPoint x="550" y="-270" />
            </Array>
          </mxGeometry>
        </mxCell>
      </root>
    </mxGraphModel>
  </diagram>
</mxfile>
